<?xml version="1.0" encoding="utf-8"?>
<!-- Generator: Adobe Illustrator 28.3.0, SVG Export Plug-In . SVG Version: 6.00 Build 0)  -->
<svg version="1.1" id="Capa_1" xmlns="http://www.w3.org/2000/svg" xmlns:xlink="http://www.w3.org/1999/xlink" x="0px" y="0px"
	 viewBox="0 0 7715 3743" style="enable-background:new 0 0 7715 3743;" xml:space="preserve">
<style type="text/css">
	.st0{fill:#FFFFFF;}
</style>
<g>
	<g>
		<polygon class="st0" points="6693.72,711.74 6691.43,713.98 6691.45,714 		"/>
		<polygon class="st0" points="7018.83,1041.38 7024.63,1035.58 7013.02,1035.58 		"/>
		<polygon class="st0" points="6697.25,1035.58 6685.65,1035.58 6691.45,1041.38 		"/>
		<polygon class="st0" points="7019.86,1234.2 7018.82,1233.16 7017.89,1234.09 7021.68,1237.88 7097.78,1161.78 7092.27,1161.78 		
			"/>
		<polygon class="st0" points="7011.15,1035.58 7013.02,1035.58 7024.63,1035.58 7155.25,1035.58 7155.25,899.83 7022.91,899.83 
			7113.88,808.86 7016.87,713.88 6953.65,777.1 6922.07,777.1 6922.07,664.91 6786.33,664.91 6786.33,777.1 6759.08,777.1 
			6693.72,711.74 6691.45,714 6691.43,713.98 6594.52,808.86 6685.49,899.83 6553.15,899.83 6553.15,1035.58 6685.65,1035.58 
			6697.25,1035.58 6590.83,1142 6686.72,1237.88 6691.44,1233.16 6762.82,1161.78 6764.9,1161.78 6786.33,1161.78 6786.33,1273.98 
			6922.07,1273.98 6922.07,1161.78 6937.99,1161.78 6945.58,1161.78 7017.89,1234.09 7018.82,1233.16 7019.86,1234.2 
			7092.27,1161.78 7097.78,1161.78 7117.57,1142 		"/>
		<polygon class="st0" points="7352.15,899.83 7444.35,807.63 7413.83,777.1 7348.47,711.74 7283.1,777.1 7249.45,777.1 
			7249.45,664.91 7113.71,664.91 7113.71,777.1 7081.45,777.1 7016.87,713.88 7113.88,808.86 7022.91,899.83 7155.25,899.83 
			7155.25,1035.58 7011.15,1035.58 7117.57,1142 7097.78,1161.78 7113.71,1161.78 7113.71,1273.98 7249.45,1273.98 7249.45,1161.78 
			7274.82,1161.78 7347.23,1234.2 7419.65,1161.78 7443.13,1138.3 7340.4,1035.58 7482.63,1035.58 7482.63,1033.56 7482.63,905.33 
			7482.63,899.83 		"/>
		<polygon class="st0" points="6697.25,1035.58 6553.15,1035.58 6553.15,899.83 6685.49,899.83 6594.52,808.86 6691.43,713.98 
			6690.41,712.97 6626.28,777.1 6594.69,777.1 6594.69,664.91 6458.96,664.91 6458.96,777.1 6427.17,777.1 6363.04,712.97 
			6298.9,777.1 6267.14,808.86 6358.11,899.83 6225.77,899.83 6225.77,905.33 6225.77,1033.56 6225.77,1035.58 6369.88,1035.58 
			6263.46,1142 6283.24,1161.78 6359.35,1237.88 6435.45,1161.78 6458.96,1161.78 6458.96,1273.98 6594.69,1273.98 6594.69,1161.78 
			6610.62,1161.78 6686.72,1237.88 6590.83,1142 		"/>
	</g>
	<g>
		<path class="st0" d="M3397.22,1773.8v-178.65h13.88v178.65H3397.22z M3405.6,1699.93v-12.31h56.58c8.2,0,15.45-1.62,21.74-4.85
			s11.27-7.86,14.93-13.88c3.66-6.03,5.5-13.14,5.5-21.35c0-8.2-1.84-15.32-5.5-21.35c-3.66-6.02-8.64-10.65-14.93-13.88
			s-13.53-4.85-21.74-4.85h-56.58v-12.31h57.89c10.48,0,19.82,2.14,28.02,6.41c8.21,4.28,14.72,10.35,19.52,18.21
			c4.8,7.86,7.2,17.12,7.2,27.77c0,10.66-2.41,19.91-7.2,27.77c-4.81,7.86-11.31,13.93-19.52,18.21c-8.2,4.28-17.55,6.41-28.02,6.41
			H3405.6z"/>
		<path class="st0" d="M3675.93,1776.42c-12.57,0-24.23-2.37-34.97-7.08c-10.74-4.71-20.13-11.3-28.16-19.77
			c-8.04-8.47-14.32-18.3-18.86-29.47c-4.55-11.18-6.81-23.14-6.81-35.89c0-12.93,2.22-24.93,6.68-36.02
			c4.46-11.08,10.69-20.82,18.73-29.21c8.03-8.39,17.37-14.88,28.02-19.51c10.65-4.63,22.27-6.95,34.85-6.95
			c12.57,0,24.23,2.32,34.97,6.95c10.74,4.63,20.08,11.13,28.02,19.51c7.95,8.39,14.19,18.16,18.73,29.34
			c4.54,11.18,6.81,23.23,6.81,36.14c0,12.75-2.23,24.72-6.68,35.89c-4.46,11.18-10.7,20.96-18.73,29.34
			c-8.04,8.39-17.33,14.93-27.9,19.65S3688.5,1776.42,3675.93,1776.42z M3675.41,1763.05c14.14,0,26.8-3.44,37.98-10.34
			c11.18-6.9,19.95-16.28,26.33-28.16c6.38-11.88,9.56-25.32,9.56-40.34c0-11.18-1.83-21.52-5.5-31.04
			c-3.66-9.52-8.82-17.81-15.46-24.88c-6.64-7.08-14.45-12.58-23.44-16.51c-8.99-3.93-18.82-5.9-29.47-5.9
			c-14.15,0-26.77,3.41-37.85,10.22c-11.09,6.81-19.83,16.11-26.2,27.9c-6.37,11.78-9.56,25.19-9.56,40.21
			c0,11.18,1.83,21.57,5.51,31.17c3.66,9.6,8.81,17.99,15.45,25.14c6.64,7.16,14.45,12.71,23.45,16.64
			C3655.19,1761.1,3664.93,1763.05,3675.41,1763.05z"/>
		<path class="st0" d="M3878.16,1773.8l-57.11-178.65h14.15l50.82,162.14h-4.98l50.56-162.14h11.26l50.82,162.14h-5.24l51.09-162.14
			h14.14l-57.36,178.65h-10.74L3935,1612.17h4.45l-50.29,161.63H3878.16z"/>
		<path class="st0" d="M4129.11,1773.8v-178.65h13.88v178.65H4129.11z M4138.02,1607.72v-12.58h106.08v12.58H4138.02z
			 M4138.02,1688.4v-12.31h99.27v12.31H4138.02z M4138.02,1773.8v-12.58h107.4v12.58H4138.02z"/>
		<path class="st0" d="M4322.69,1773.8v-178.65h13.88v178.65H4322.69z M4331.08,1691.81v-11.78h55.27c13.1,0,23.09-3.31,30-9.96
			c6.9-6.63,10.34-15.45,10.34-26.45c0-10.83-3.45-19.56-10.34-26.2c-6.9-6.63-16.9-9.95-30-9.95h-55.27v-12.31h54.74
			c11.53,0,21.4,2.05,29.61,6.15c8.2,4.11,14.49,9.78,18.86,17.02c4.36,7.25,6.55,15.68,6.55,25.28s-2.19,18.03-6.55,25.28
			c-4.36,7.25-10.65,12.88-18.86,16.9c-8.21,4.01-18.08,6.02-29.61,6.02H4331.08z M4435.85,1773.8l-69.16-85.13l13.88-3.67
			l73.35,88.8H4435.85z"/>
		<path class="st0" d="M4524.65,1773.8v-178.65h13.88v178.65H4524.65z M4533.56,1607.72v-12.58h106.08v12.58H4533.56z
			 M4533.56,1688.4v-12.31h99.27v12.31H4533.56z M4533.56,1773.8v-12.58h107.4v12.58H4533.56z"/>
		<path class="st0" d="M4718.23,1773.8v-178.65h13.88v178.65H4718.23z M4725.57,1773.8v-12.83h55.53c14.84,0,28.03-3.27,39.55-9.83
			c11.53-6.55,20.52-15.58,26.98-27.11c6.46-11.53,9.69-24.79,9.69-39.82c0-14.84-3.23-27.98-9.69-39.43
			c-6.46-11.43-15.46-20.43-26.98-26.98c-11.52-6.55-24.71-9.82-39.55-9.82h-54.75v-12.83h55.01c13.1,0,25.15,2.22,36.15,6.68
			c11,4.46,20.56,10.65,28.68,18.6c8.12,7.95,14.41,17.38,18.86,28.29c4.46,10.92,6.68,22.84,6.68,35.75
			c0,12.75-2.22,24.58-6.68,35.49c-4.46,10.92-10.7,20.4-18.73,28.42c-8.04,8.04-17.55,14.27-28.56,18.73
			c-11,4.46-22.96,6.68-35.89,6.68H4725.57z"/>
		<path class="st0" d="M5048.54,1773.8v-178.65h13.88v178.65H5048.54z M5056.93,1773.8v-12.31h59.46c12.92,0,23.27-3.54,31.04-10.61
			c7.77-7.07,11.66-16.2,11.66-27.37c0-7.34-1.71-13.79-5.11-19.39c-3.41-5.58-8.12-10.04-14.14-13.36
			c-6.03-3.31-13.14-4.97-21.35-4.97h-61.55v-11.79h59.46c10.64,0,19.07-2.96,25.28-8.9c6.2-5.94,9.29-14.06,9.29-24.36
			c0-10.48-3.4-18.64-10.21-24.49s-15.98-8.78-27.51-8.78h-56.32v-12.31h56.58c10.83,0,20.04,1.87,27.63,5.63
			c7.6,3.76,13.44,8.95,17.55,15.58c4.11,6.65,6.16,14.41,6.16,23.32c0,10.13-2.67,18.86-8,26.19s-12.97,12.67-22.92,15.98
			l1.57-4.71c11.69,3.31,20.91,9.13,27.63,17.41c6.72,8.3,10.09,18.21,10.09,29.73c0,9.61-2.36,18.16-7.07,25.68
			c-4.71,7.51-11.39,13.36-20.04,17.55c-8.64,4.19-19,6.29-31.05,6.29H5056.93z"/>
		<path class="st0" d="M5299.5,1698.88l-71.51-103.73h16.5l61.3,89.32h-6.02l61.82-89.32h15.72l-72.04,103.73H5299.5z
			 M5295.83,1773.8v-86.18h13.88v86.18H5295.83z"/>
		<path class="st0" d="M5541.8,1773.8v-178.65h13.88v178.65H5541.8z M5550.19,1773.8v-12.31h59.46c12.92,0,23.27-3.54,31.04-10.61
			s11.66-16.2,11.66-27.37c0-7.34-1.71-13.79-5.11-19.39c-3.41-5.58-8.12-10.04-14.14-13.36c-6.03-3.31-13.14-4.97-21.35-4.97
			h-61.55v-11.79h59.46c10.64,0,19.07-2.96,25.28-8.9c6.2-5.94,9.29-14.06,9.29-24.36c0-10.48-3.4-18.64-10.21-24.49
			s-15.98-8.78-27.51-8.78h-56.32v-12.31h56.58c10.83,0,20.04,1.87,27.63,5.63c7.6,3.76,13.44,8.95,17.55,15.58
			c4.11,6.65,6.16,14.41,6.16,23.32c0,10.13-2.67,18.86-7.99,26.19c-5.33,7.34-12.97,12.67-22.92,15.98l1.57-4.71
			c11.69,3.31,20.91,9.13,27.63,17.41c6.72,8.3,10.09,18.21,10.09,29.73c0,9.61-2.36,18.16-7.07,25.68s-11.39,13.36-20.04,17.55
			s-19,6.29-31.05,6.29H5550.19z"/>
		<path class="st0" d="M5745.07,1773.8v-178.65h13.88v178.65H5745.07z M5753.45,1773.8v-12.31h59.46c12.92,0,23.27-3.54,31.04-10.61
			c7.77-7.07,11.66-16.2,11.66-27.37c0-7.34-1.71-13.79-5.11-19.39c-3.41-5.58-8.12-10.04-14.14-13.36
			c-6.03-3.31-13.14-4.97-21.35-4.97h-61.55v-11.79h59.46c10.64,0,19.07-2.96,25.28-8.9c6.2-5.94,9.29-14.06,9.29-24.36
			c0-10.48-3.4-18.64-10.21-24.49s-15.98-8.78-27.51-8.78h-56.32v-12.31h56.58c10.83,0,20.04,1.87,27.63,5.63
			c7.6,3.76,13.44,8.95,17.55,15.58c4.11,6.65,6.16,14.41,6.16,23.32c0,10.13-2.67,18.86-8,26.19s-12.97,12.67-22.92,15.98
			l1.57-4.71c11.69,3.31,20.91,9.13,27.63,17.41c6.72,8.3,10.09,18.21,10.09,29.73c0,9.61-2.36,18.16-7.07,25.68
			c-4.71,7.51-11.39,13.36-20.04,17.55c-8.64,4.19-19,6.29-31.05,6.29H5753.45z"/>
		<path class="st0" d="M5948.34,1773.8v-178.65h13.88v178.65H5948.34z M6064.39,1773.8l-105.3-92.99l102.95-85.66h19.39
			l-107.93,89.59v-8.39l110.54,97.45H6064.39z"/>
	</g>
	<g>
		<path class="st0" d="M523,1510.15V428.73h303.76v1081.42H523z M770.58,1510.15v-258.22h548.53l-42.72,258.22H770.58z"/>
		<path class="st0" d="M1206.71,1510.15l411.66-1081.42h309.82l407.08,1081.42h-315.93L1717.1,591.22h109.36l-309.88,918.93H1206.71
			z"/>
		<path class="st0" d="M2337.4,1510.15V428.73h212.62l91.15,227.78v853.64H2337.4z M3081.68,1510.15L2454.35,721.8l95.67-293.07
			l627.33,788.23L3081.68,1510.15z M3081.68,1510.15l-75.99-240V428.73h303.82v1081.42H3081.68z"/>
		<path class="st0" d="M3397.91,1510.15V428.73h303.76v1081.42H3397.91z M3645.5,1510.15v-258.22h560.73l-54.93,258.22H3645.5z"/>
		<path class="st0" d="M4087.89,1510.15l411.66-1081.42h309.82l407.08,1081.42h-315.93l-302.24-918.93h109.36l-309.88,918.93
			H4087.89z"/>
		<path class="st0" d="M5218.64,1510.15V428.73h297.71v1081.42H5218.64z M5464.69,1510.15v-218.73h198.98
			c38.45,0,69.32-10.39,92.68-31.18c23.29-20.66,34.91-49.27,34.91-85.83c0-24.21-5.32-45.24-15.96-62.97
			c-10.64-17.73-25.31-31.18-44.01-40.22c-18.77-9.17-41.26-13.69-67.61-13.69h-198.98V847.85h185.29c32.4,0,59.24-8.07,80.51-24.21
			c21.27-16.26,31.91-41.57,31.91-76.05c0-34.36-10.64-59.66-31.91-75.93c-21.27-16.14-48.11-24.21-80.51-24.21h-185.29V428.73
			h270.39c65.78,0,123.24,12.35,172.39,37.17c49.09,24.82,87.36,58.69,114.68,101.72c27.33,43.04,41.02,92.43,41.02,148.18
			c0,76.9-27.39,139.75-82.04,188.29c-54.65,48.66-134.67,76.54-240,83.51l-3-104.78c114.38,7.09,201.98,38.51,262.74,94.14
			c60.76,55.75,91.15,127.15,91.15,214.21c0,62.84-15.71,118.23-47.07,166.28c-31.42,48.17-75.19,85.58-131.43,112.48
			c-56.18,26.78-121.77,40.22-196.66,40.22H5464.69z"/>
	</g>
</g>
</svg>
